<svg xmlns="http://www.w3.org/2000/svg" width="19" height="16" viewBox="0 0 19 16" fill="none">
  <path fill-rule="evenodd" clip-rule="evenodd" d="M18.017 8.93333V14.3333C18.017 14.572 17.9222 14.8009 17.7534 14.9697C17.5846 15.1385 17.3557 15.2333 17.117 15.2333H16.217C15.9783 15.2333 15.7494 15.1385 15.5806 14.9697C15.4118 14.8009 15.317 14.572 15.317 14.3333V13.4333H4.51699V14.3333C4.51699 14.572 4.42217 14.8009 4.25339 14.9697C4.08461 15.1385 3.85569 15.2333 3.61699 15.2333H2.71699C2.4783 15.2333 2.24938 15.1385 2.0806 14.9697C1.91181 14.8009 1.81699 14.572 1.81699 14.3333V8.93333C1.5783 8.93333 1.34938 8.83851 1.1806 8.66972C1.01181 8.50094 0.916992 8.27202 0.916992 8.03333V7.13333C0.916956 6.98798 0.952124 6.84478 1.01949 6.71598C1.08685 6.58719 1.18441 6.47662 1.30382 6.39374C1.42323 6.31086 1.56093 6.25814 1.70516 6.24008C1.84938 6.22202 1.99583 6.23916 2.13199 6.29003L4.11469 2.32553C4.33896 1.87714 4.68364 1.50005 5.11012 1.2365C5.53661 0.972949 6.02805 0.833345 6.52939 0.833328H13.3046C13.8059 0.833345 14.2974 0.972949 14.7239 1.2365C15.1503 1.50005 15.495 1.87714 15.7193 2.32553L17.702 6.29003C17.8381 6.23916 17.9846 6.22202 18.1288 6.24008C18.2731 6.25814 18.4108 6.31086 18.5302 6.39374C18.6496 6.47662 18.7471 6.58719 18.8145 6.71598C18.8819 6.84478 18.917 6.98798 18.917 7.13333V8.03333C18.917 8.27202 18.8222 8.50094 18.6534 8.66972C18.4846 8.83851 18.2557 8.93333 18.017 8.93333ZM15.6608 6.23333L14.1092 3.13103C14.0345 2.98156 13.9197 2.85583 13.7776 2.76793C13.6355 2.68002 13.4717 2.63342 13.3046 2.63333H6.52939C6.3623 2.63342 6.19852 2.68002 6.05642 2.76793C5.91431 2.85583 5.79948 2.98156 5.72479 3.13103L4.17319 6.23333H15.6608ZM14.417 10.7333C14.6557 10.7333 14.8846 10.6385 15.0534 10.4697C15.2222 10.3009 15.317 10.072 15.317 9.83333C15.317 9.59463 15.2222 9.36572 15.0534 9.19693C14.8846 9.02815 14.6557 8.93333 14.417 8.93333C14.1783 8.93333 13.9494 9.02815 13.7806 9.19693C13.6118 9.36572 13.517 9.59463 13.517 9.83333C13.517 10.072 13.6118 10.3009 13.7806 10.4697C13.9494 10.6385 14.1783 10.7333 14.417 10.7333ZM6.31699 9.83333C6.31699 10.072 6.22217 10.3009 6.05339 10.4697C5.88461 10.6385 5.65569 10.7333 5.41699 10.7333C5.1783 10.7333 4.94938 10.6385 4.7806 10.4697C4.61181 10.3009 4.51699 10.072 4.51699 9.83333C4.51699 9.59463 4.61181 9.36572 4.7806 9.19693C4.94938 9.02815 5.1783 8.93333 5.41699 8.93333C5.65569 8.93333 5.88461 9.02815 6.05339 9.19693C6.22217 9.36572 6.31699 9.59463 6.31699 9.83333Z" fill="#9E9E9E"/>
</svg>