<svg xmlns="http://www.w3.org/2000/svg" width="15" height="15" viewBox="0 0 15 15" fill="none">
  <g clip-path="url(#clip0_538_2383)">
    <path d="M3.32432 9.06469L2.80219 11.0139L0.893818 11.0542C0.323496 9.99642 0 8.78614 0 7.50001C0 6.25633 0.302461 5.08351 0.838594 4.05083H0.839004L2.53799 4.36231L3.28225 6.0511C3.12647 6.50523 3.04157 6.99273 3.04157 7.50001C3.04163 8.05055 3.14136 8.57804 3.32432 9.06469Z" fill="#FBBB00"/>
    <path d="M14.869 6.09891C14.9551 6.5526 15 7.02114 15 7.5C15 8.03695 14.9435 8.56072 14.836 9.06595C14.4709 10.7852 13.5169 12.2864 12.1954 13.3488L12.1949 13.3484L10.055 13.2392L9.75211 11.3485C10.629 10.8342 11.3143 10.0294 11.6753 9.06595H7.66489V6.09891H14.869Z" fill="#518EF8"/>
    <path d="M12.1949 13.3484L12.1953 13.3488C10.91 14.3819 9.27732 15 7.5 15C4.64381 15 2.16058 13.4036 0.893814 11.0543L3.32431 9.06471C3.95768 10.7551 5.58832 11.9584 7.5 11.9584C8.32168 11.9584 9.09149 11.7363 9.75205 11.3485L12.1949 13.3484Z" fill="#28B446"/>
    <path d="M12.2872 1.72664L9.85755 3.71578C9.17391 3.28846 8.36578 3.0416 7.5 3.0416C5.54505 3.0416 3.88391 4.30011 3.28227 6.05109L0.839003 4.05082H0.838593C2.08682 1.64423 4.60137 0 7.5 0C9.31977 0 10.9883 0.648223 12.2872 1.72664Z" fill="#F14336"/>
  </g>
  <defs>
    <clipPath id="clip0_538_2383">
      <rect width="15" height="15" fill="white"/>
    </clipPath>
  </defs>
</svg>